<svg xmlns="http://www.w3.org/2000/svg" enable-background="new 0 0 24 24" viewBox="0 0 24 24"><path fill="#2A82DE" d="M21,8v1.5c0,0.276123,0.223877,0.5,0.5,0.5S22,9.776123,22,9.5V8c-0.0018311-1.6561279-1.3438721-2.9981689-3-3h-6.1396484l-0.3163452-0.9492188C12.1364746,2.8253784,10.989624,1.9989014,9.6982422,2H5C3.3438721,2.0018311,2.0018311,3.3438721,2,5v13c0.0018311,1.6561279,1.3438721,2.9981689,3,3h6.5c0.276123,0,0.5-0.223877,0.5-0.5S11.776123,20,11.5,20H5c-1.1040039-0.0014038-1.9985962-0.8959961-2-2V5c0.0014038-1.1040039,0.8959961-1.9985962,2-2h4.6982422c0.8607788-0.0007324,1.6251831,0.550293,1.8964844,1.3671875l0.4306641,1.2910156C12.09375,5.8622437,12.28479,5.9998169,12.5,6H19C20.1040039,6.0014038,20.9985962,6.8959961,21,8z M22,16.0508423V14.5c0-1.3807373-1.1192627-2.5-2.5-2.5S17,13.1192627,17,14.5v1.5508423C15.8594971,16.2832642,15.0010986,17.2910767,15,18.5v2c0.0012817,1.380188,1.119812,2.4987183,2.5,2.5h4c1.380188-0.0012817,2.4987183-1.119812,2.5-2.5v-2C23.9989014,17.2910767,23.1405029,16.2832642,22,16.0508423z M18,14.5c0-0.8284302,0.6715698-1.5,1.5-1.5s1.5,0.6715698,1.5,1.5V16h-3V14.5z M23,20.5c-0.0009155,0.828064-0.671936,1.4990845-1.5,1.5h-4c-0.828064-0.0009155-1.4990845-0.671936-1.5-1.5v-2c0.0009155-0.828064,0.671936-1.4990845,1.5-1.5h4c0.828064,0.0009155,1.4990845,0.671936,1.5,1.5V20.5z"/></svg>