<?xml version="1.0" encoding="utf-8"?>
<!-- Generator: Adobe Illustrator 25.1.0, SVG Export Plug-In . SVG Version: 6.00 Build 0)  -->
<svg version="1.1" id="Layer_1" xmlns="http://www.w3.org/2000/svg" xmlns:xlink="http://www.w3.org/1999/xlink" x="0px" y="0px"
	 viewBox="0 0 24 24" style="enable-background:new 0 0 24 24;" xml:space="preserve">
<style type="text/css">
	.st0{fill:#3490DC;}
</style>
<path class="st0" d="M15.8,8.6l-5.6,5.6l-2.5-2.5c0,0,0,0,0,0c-0.2-0.2-0.5-0.2-0.7,0c-0.2,0.2-0.2,0.5,0,0.7l2.8,2.8
	c0.1,0.1,0.2,0.1,0.4,0.1c0.1,0,0.3-0.1,0.4-0.1l6-6c0,0,0,0,0,0c0.2-0.2,0.2-0.5,0-0.7C16.3,8.4,16,8.4,15.8,8.6z M12,2
	C6.5,2,2,6.5,2,12s4.5,10,10,10c5.5,0,10-4.5,10-10C22,6.5,17.5,2,12,2z M12,21c-5,0-9-4-9-9s4-9,9-9c5,0,9,4,9,9C21,17,17,21,12,21
	z"/>
</svg>
