<?xml version="1.0" encoding="UTF-8"?>
<svg width="166px" height="168px" viewBox="0 0 166 168" version="1.1" xmlns="http://www.w3.org/2000/svg" xmlns:xlink="http://www.w3.org/1999/xlink">
    <title>Artboard</title>
    <defs>
        <linearGradient x1="25.8795779%" y1="50%" x2="75.8279752%" y2="50%" id="linearGradient-1">
            <stop stop-color="#2F2F2F" offset="0%"></stop>
            <stop stop-color="#2F2F2F" offset="100%"></stop>
        </linearGradient>
        <linearGradient x1="8.640494%" y1="0%" x2="92.7816251%" y2="100%" id="linearGradient-2">
            <stop stop-color="#0FE35E" offset="0%"></stop>
            <stop stop-color="#2E77EE" offset="100%"></stop>
        </linearGradient>
    </defs>
    <g id="Artboard" stroke="none" stroke-width="1" fill="none" fill-rule="evenodd">
        <g id="M" transform="translate(29.000000, 40.875000)">
            <path d="M81.1218467,0 C92.3176432,0 101.325755,8.75073746 101.325755,20.3325959 L101.324145,20.203 L101.325755,20.2039086 L101.325755,65.5018437 L89.4865222,65.5018437 L89.4865222,20.3325959 C89.4865222,15.3137906 85.7545901,11.5818584 81.1218467,11.5818584 C76.4891033,11.5818584 72.7571712,15.3137906 72.7571712,20.3325959 L72.7571712,20.3325959 L72.7571712,57.7806047 C72.7571712,69.2337758 63.8777464,78.4193671 52.68195,78.4193671 C41.4861535,78.4193671 32.6067287,69.2337758 32.6067287,57.7806047 L32.6067287,57.7806047 L32.6067287,20.3325959 C32.6067287,15.3137906 28.8747966,11.5818584 24.2420532,11.5818584 C19.6093098,11.5818584 15.8773777,15.3137906 15.8773777,20.3325959 L15.8773777,20.3325959 L15.8773777,42.8528761 L4.03814464,42.8528761 L4.03814464,20.2039086 C4.10528907,8.68566238 13.0879633,0 24.2420532,0 C35.4378497,0 44.4459618,8.75073746 44.4459618,20.3325959 L44.4459618,20.3325959 L44.4459618,57.7806047 C44.4459618,62.6707227 48.0492066,68.0519638 52.68195,68.0519638 C57.3146933,68.0519638 60.9179382,62.6707227 60.9179382,57.7806047 L60.9179382,57.7806047 L60.9179382,20.3325959 C60.9179382,8.75073746 69.9260502,0 81.1218467,0 Z" id="Combined-Shape" fill="url(#linearGradient-1)" fill-rule="nonzero"></path>
            <circle id="Oval" stroke="#2F2F2F" stroke-width="4" cx="9.78023599" cy="50.0593658" r="7.78023599"></circle>
            <circle id="Oval" stroke="#2F2F2F" stroke-width="4" cx="95.500236" cy="72.7083333" r="7.78023599"></circle>
        </g>
        <circle id="Oval" stroke="url(#linearGradient-2)" stroke-width="12" cx="83" cy="84" r="76"></circle>
    </g>
</svg>